<svg xmlns="http://www.w3.org/2000/svg" viewBox="0 0 24 24" width="24" height="24" role="img" aria-hidden="true" focusable="false">
  <path fill="currentColor" d="M17.05 12.54c-.03-2.86 2.33-4.23 2.44-4.3-1.33-1.95-3.4-2.22-4.14-2.25-1.76-.18-3.44 1.04-4.33 1.04-.9 0-2.27-1.02-3.74-.99-1.92.03-3.7 1.12-4.69 2.84-2 3.47-.51 8.6 1.43 11.42.95 1.38 2.08 2.93 3.56 2.87 1.43-.06 1.97-.92 3.7-.92 1.72 0 2.21.92 3.72.89 1.54-.03 2.51-1.4 3.45-2.79 1.09-1.6 1.53-3.15 1.56-3.23-.03-.01-2.99-1.15-3.02-4.58zM14.2 4.11c.79-.96 1.32-2.29 1.17-3.61-1.13.05-2.5.76-3.32 1.71-.73.85-1.37 2.2-1.2 3.5 1.26.1 2.55-.64 3.35-1.6z"/>
</svg>
